<svg width="120" height="120" viewBox="0 0 120 120" fill="none" xmlns="http://www.w3.org/2000/svg">
<g filter="url(#filter0_b_729_5699)">
<path fill-rule="evenodd" clip-rule="evenodd" d="M0 22.4C0 14.5593 0 10.6389 1.52591 7.64413C2.86814 5.00986 5.00986 2.86814 7.64413 1.52591C10.6389 0 14.5593 0 22.4 0H97.6C105.441 0 109.361 0 112.356 1.52591C114.99 2.86814 117.132 5.00986 118.474 7.64413C120 10.6389 120 14.5593 120 22.4V97.6C120 105.441 120 109.361 118.474 112.356C117.132 114.99 114.99 117.132 112.356 118.474C109.361 120 105.441 120 97.6 120H22.4C14.5593 120 10.6389 120 7.64413 118.474C5.00986 117.132 2.86814 114.99 1.52591 112.356C0 109.361 0 105.441 0 97.6V22.4Z" fill="#F2F2F2" fill-opacity="0.8"/>
</g>
<path d="M23.42 62.5464H25.105C26.9146 62.5464 27.9439 63.3848 27.9439 64.7295C27.9439 66.0244 26.8482 66.9541 25.1631 66.9541C23.503 66.9541 22.3741 66.1323 22.2413 64.8789H20.7969C20.9048 66.9209 22.648 68.2822 25.1797 68.2822C27.5953 68.2822 29.4796 66.7466 29.4796 64.771C29.4796 63.0527 28.3506 61.9819 26.8233 61.8242V61.6914C28.1514 61.3594 29.0562 60.2471 29.0562 58.9438C29.0562 57.0762 27.4625 55.7397 25.213 55.7397C22.8306 55.7397 21.2784 57.0181 21.129 59.0933H22.5816C22.7061 57.8232 23.6773 57.0679 25.1548 57.0679C26.6656 57.0679 27.5372 57.873 27.5372 59.0767C27.5372 60.3301 26.5577 61.2183 25.0386 61.2183H23.42V62.5464ZM33.9026 68.1577C35.0979 68.1577 36.0774 67.6348 36.6585 66.6802H36.7913V68H38.1526V61.874C38.1526 60.0146 36.9324 58.894 34.7493 58.894C32.8401 58.894 31.429 59.8403 31.2381 61.2764H32.6824C32.8816 60.5708 33.6287 60.1641 34.6995 60.1641C36.0359 60.1641 36.7249 60.77 36.7249 61.874V62.6875L34.1433 62.8452C32.0598 62.9697 30.8811 63.8911 30.8811 65.4932C30.8811 67.1284 32.1677 68.1577 33.9026 68.1577ZM34.1682 66.9043C33.1306 66.9043 32.3587 66.373 32.3587 65.46C32.3587 64.5635 32.9563 64.0903 34.3176 63.999L36.7249 63.8413V64.6631C36.7249 65.9414 35.6375 66.9043 34.1682 66.9043ZM46.2695 60.2471V59.0518H40.542V68H41.9697V60.2471H46.2695ZM52.4025 58.894C51.1823 58.894 50.1115 59.5166 49.5388 60.5459H49.4059V59.0518H48.0446V70.9883H49.4724V66.6553H49.6052C50.0949 67.6016 51.1242 68.1577 52.4025 68.1577C54.6769 68.1577 56.1628 66.3232 56.1628 63.5259C56.1628 60.7119 54.6852 58.894 52.4025 58.894ZM52.0622 66.8711C50.4518 66.8711 49.4308 65.5762 49.4308 63.5259C49.4308 61.4673 50.4518 60.1807 52.0705 60.1807C53.7057 60.1807 54.6852 61.4341 54.6852 63.5259C54.6852 65.6177 53.7057 66.8711 52.0622 66.8711ZM58.5936 71.2373C60.1791 71.2373 60.893 70.623 61.6566 68.5479L65.1513 59.0518H63.6322L61.1835 66.4146H61.0507L58.5936 59.0518H57.0497L60.3617 68.0083L60.1957 68.5396C59.8222 69.6187 59.3739 70.0088 58.5521 70.0088C58.3529 70.0088 58.1288 70.0005 57.9545 69.9673V71.1875C58.1537 71.2207 58.4027 71.2373 58.5936 71.2373ZM69.5245 68.1494C71.608 68.1494 73.044 67.0205 73.044 65.3604C73.044 64.3643 72.4298 63.6421 71.2428 63.3848V63.252C72.131 63.0444 72.7203 62.2227 72.7203 61.3096C72.7203 59.8818 71.5748 58.894 69.5743 58.894C67.7232 58.894 66.4117 59.8237 66.2208 61.293H67.6319C67.7481 60.5708 68.5284 60.106 69.5743 60.106C70.7281 60.106 71.3092 60.6621 71.3092 61.4175C71.3092 62.3555 70.67 62.812 69.5245 62.812H68.13V64.0073H69.5245C70.8941 64.0073 71.6246 64.4556 71.6246 65.4351C71.6246 66.3232 70.8443 66.9458 69.5245 66.9458C68.4039 66.9458 67.6153 66.4893 67.441 65.709H65.9718C66.1295 67.1948 67.5821 68.1494 69.5245 68.1494ZM76.4627 68L80.9202 61.3262H81.053V68H82.4808V59.0518H81.053L76.5955 65.7256H76.4627V59.0518H75.035V68H76.4627ZM91.4028 59.0518H84.1646V60.2471H87.0698V68H88.4976V60.2471H91.4028V59.0518ZM93.0783 68H96.2741C98.3244 68 99.636 66.8213 99.636 64.9619C99.636 63.1025 98.3244 61.9238 96.2741 61.9238H94.5061V59.0518H93.0783V68ZM96.2741 63.1191C97.4446 63.1191 98.2082 63.8413 98.2082 64.9619C98.2082 66.0742 97.4529 66.8047 96.2741 66.8047H94.5061V63.1191H96.2741ZM45.8781 90.1079V92.9883H47.2726V90.1079C50.0368 90.0664 51.8796 88.29 51.8796 85.5259C51.8796 82.77 50.0368 80.9937 47.2726 80.9438V78.022H45.8781V80.9438C43.1057 80.9854 41.2629 82.7617 41.2629 85.5259C41.2629 88.2817 43.1057 90.0581 45.8781 90.1079ZM45.8781 88.8711C43.944 88.8213 42.7155 87.5596 42.7155 85.5259C42.7155 83.4839 43.944 82.2222 45.8781 82.1807V88.8711ZM50.4269 85.5259C50.4269 87.5679 49.1984 88.8296 47.2726 88.8711V82.1807C49.1984 82.2305 50.4269 83.4922 50.4269 85.5259ZM57.5644 90.1577C60.1127 90.1577 61.6898 88.3979 61.6898 85.5259C61.6898 82.6455 60.1127 80.894 57.5644 80.894C55.016 80.894 53.4389 82.6455 53.4389 85.5259C53.4389 88.3979 55.016 90.1577 57.5644 90.1577ZM57.5644 88.8711C55.871 88.8711 54.9164 87.6426 54.9164 85.5259C54.9164 83.4009 55.871 82.1807 57.5644 82.1807C59.2577 82.1807 60.2123 83.4009 60.2123 85.5259C60.2123 87.6426 59.2577 88.8711 57.5644 88.8711ZM69.5826 81.0518H62.3443V82.2471H65.2496V90H66.6773V82.2471H69.5826V81.0518ZM74.6116 90.1577C77.16 90.1577 78.7371 88.3979 78.7371 85.5259C78.7371 82.6455 77.16 80.894 74.6116 80.894C72.0633 80.894 70.4861 82.6455 70.4861 85.5259C70.4861 88.3979 72.0633 90.1577 74.6116 90.1577ZM74.6116 88.8711C72.9183 88.8711 71.9637 87.6426 71.9637 85.5259C71.9637 83.4009 72.9183 82.1807 74.6116 82.1807C76.305 82.1807 77.2596 83.4009 77.2596 85.5259C77.2596 87.6426 76.305 88.8711 74.6116 88.8711Z" fill="#3C3C43" fill-opacity="0.3"/>
<path d="M59.5073 36.6382C59.8882 36.6382 60.1958 36.3306 60.1958 35.9644V28.5962L60.1372 27.5122L60.5913 28.0469L61.6094 29.1382C61.7339 29.27 61.9023 29.3359 62.0708 29.3359C62.4077 29.3359 62.686 29.0942 62.686 28.75C62.686 28.5669 62.6128 28.4351 62.4883 28.3105L60.0273 25.9448C59.8516 25.769 59.6904 25.7104 59.5073 25.7104C59.3315 25.7104 59.1631 25.769 58.9873 25.9448L56.5264 28.3105C56.4019 28.4351 56.3359 28.5669 56.3359 28.75C56.3359 29.0942 56.6069 29.3359 56.9438 29.3359C57.1123 29.3359 57.2881 29.27 57.4053 29.1382L58.4233 28.0469L58.8774 27.5049L58.8262 28.5962V35.9644C58.8262 36.3306 59.1338 36.6382 59.5073 36.6382ZM55.2812 42.4902H63.7188C65.3081 42.4902 66.1284 41.6699 66.1284 40.1025V32.9028C66.1284 31.3354 65.3081 30.5151 63.7188 30.5151H61.7412V31.9727H63.6235C64.29 31.9727 64.6709 32.3242 64.6709 33.0273V39.9707C64.6709 40.6738 64.29 41.0254 63.6235 41.0254H55.3765C54.7026 41.0254 54.3291 40.6738 54.3291 39.9707V33.0273C54.3291 32.3242 54.7026 31.9727 55.3765 31.9727H57.2808V30.5151H55.2812C53.6992 30.5151 52.8716 31.3281 52.8716 32.9028V40.1025C52.8716 41.6699 53.6992 42.4902 55.2812 42.4902Z" fill="#3C3C43" fill-opacity="0.3"/>
<defs>
<filter id="filter0_b_729_5699" x="-54.3656" y="-54.3656" width="228.731" height="228.731" filterUnits="userSpaceOnUse" color-interpolation-filters="sRGB">
<feFlood flood-opacity="0" result="BackgroundImageFix"/>
<feGaussianBlur in="BackgroundImage" stdDeviation="27.1828"/>
<feComposite in2="SourceAlpha" operator="in" result="effect1_backgroundBlur_729_5699"/>
<feBlend mode="normal" in="SourceGraphic" in2="effect1_backgroundBlur_729_5699" result="shape"/>
</filter>
</defs>
</svg>
